# AST/ASF file generated using VICON BodyLanguage
# -----------------------------------------------
:version 1.10
:name VICON
:units
  mass 1.0
  length 0.45
  angle deg
:documentation
   .ast/.asf automatically generated from VICON data using
   VICON BodyBuilder and BodyLanguage model FoxedUp or BRILLIANT.MOD
:root
   order TX TY TZ RX RY RZ
   axis XYZ
   position 0 0 0  
   orientation 0 0 0 
:bonedata
  begin
     id 1 
     name lhipjoint
     direction 0.714689 -0.624256 0.315473 
     length 2.45343 
     axis 0 0 0  XYZ
  end
  begin
     id 2 
     name lfemur
     direction 0.34202 -0.939693 0  
     length 6.59069  
     axis 0 0 20  XYZ
    dof rx ry rz
    limits (-160.0 20.0)
           (-70.0 70.0)
           (-60.0 70.0)
  end
  begin
     id 3 
     name ltibia
     direction 0.34202 -0.939693 0   
     length 6.73476   
     axis 0 0 20   XYZ
    dof rx
    limits (-10.0 170.0)
  end
  begin
     id 4 
     name lfoot
     direction 0.0718085 -0.197292 0.977711   
     length 1.52607   
     axis -90 7.62852e-016 20   XYZ
    dof rx rz
    limits (-45.0 90.0)
           (-70.0 20.0)
  end
  begin
     id 5 
     name ltoes
     direction 1.53553e-011 -4.22024e-011 1   
     length 0.777832   
     axis -90 7.62852e-016 20   XYZ
    dof rx
    limits (-90.0 20.0)
  end
  begin
     id 6 
     name rhipjoint
     direction -0.727419 -0.612432 0.309497   
     length 2.50079  
     axis 0 0 0  XYZ 
  end
  begin
     id 7 
     name rfemur
     direction -0.34202 -0.939693 0   
     length 6.51665   
     axis 0 0 -20   XYZ
    dof rx ry rz
    limits (-160.0 20.0)
           (-70.0 70.0)
           (-70.0 60.0)
  end
  begin
     id 8 
     name rtibia
     direction -0.34202 -0.939693 0   
     length 6.48919   
     axis 0 0 -20   XYZ
    dof rx
    limits (-10.0 170.0)
 end
 begin
     id 9 
     name rfoot
     direction -0.112205 -0.308282 0.944655   
     length 1.68717  
     axis -90 -7.62852e-016 -20   XYZ
    dof rx rz
    limits (-45.0 90.0)
           (-20.0 70.0)
  end
  begin
     id 10 
     name rtoes
     direction -1.53583e-011 -4.21993e-011 1   
     length 0.846859   
     axis -90 -7.62852e-016 -20   XYZ
    dof rx
    limits (-90.0 20.0)
  end
  begin
     id 11 
     name lowerback
     direction -0.00119603 0.996364 -0.0851956   
     length 1.67242   
     axis 0 0 0   XYZ
    dof rx ry rz
    limits (-20.0 45.0)
           (-30.0 30.0)
           (-30.0 30.0)
  end
  begin
     id 12 
     name upperback
     direction -0.00531001 0.998318 0.0577248   
     length 1.64819   
     axis 0 0 0   XYZ
    dof rx ry rz
    limits (-20.0 45.0)
           (-30.0 30.0)
           (-30.0 30.0)
  end
  begin
     id 13 
     name thorax
     direction -0.00653676 0.995132 0.0983291   
     length 1.67429   
     axis 0 0 0   XYZ
    dof rx ry rz
    limits (-20.0 45.0)
           (-30.0 30.0)
           (-30.0 30.0)
  end
  begin
     id 14 
     name lowerneck
     direction 0.0141424 0.999886 0.00525412   
     length 1.59623   
     axis 0 0 0   XYZ
    dof rx ry rz
    limits (-20.0 45.0)
           (-30.0 30.0)
           (-30.0 30.0)
  end
  begin
     id 15 
     name upperneck
     direction -0.0640064 0.987178 -0.146232   
     length 1.59576   
     axis 0 0 0   XYZ
    dof rx ry rz
    limits (-20.0 45.0)
           (-30.0 30.0)
           (-30.0 30.0)
  end
  begin
     id 16
     name head
     direction -0.0222942 0.998496 -0.0500859  
     length 1.60959  
     axis 0 0 0   XYZ
    dof rx ry rz
    limits (-20.0 45.0)
           (-30.0 30.0)
           (-30.0 30.0)
  end
  begin
     id 17 
     name lclavicle
     direction 0.908549 0.392612 0.142806  
     length 2.80649  
     axis 0 0 0   XYZ
    dof ry rz
    limits (-20.0 10.0)
           (0.0 20.0)
  end
  begin
     id 18 
     name lhumerus
     direction 1 -4.48968e-011 1.08832e-028   
     length 4.2884   
     axis -180 -30 -90   XYZ
    dof rx ry rz
    limits (-60.0 90.0)
           (-90.0 90.0)
           (-90.0 90.0)
  end
  begin
     id 19
     name lradius
     direction 1 -4.48952e-011 -3.02642e-028   
     length 3.06552   
     axis -180 -30 -90   XYZ
    dof rx
    limits (-10.0 170.0)
  end
  begin
     id 20
     name lwrist
     direction 1 -4.49014e-011 1.58672e-027   
     length 1.53276   
     axis -1.65735e-015 90 90   XYZ
    dof ry
    limits (-180.0 0.0)
 end
  begin
     id 21 
     name lhand
     direction 1 -4.48928e-011 3.17344e-027   
     length 0.753045   
     axis -2.02492e-015 90 90   XYZ
    dof rx rz
    limits (-90.0 90.0)
           (-45.0 45.0)
  end
  begin
     id 22 
     name lfingers
     direction 1 -4.48958e-011 6.34687e-027   
     length 0.607124   
     axis -4.04985e-015 90 90   XYZ
    dof rx
    limits (0.0 90.0)
  end
  begin
     id 23
     name lthumb
     direction 0.707107 -6.34905e-011 0.707107   
     length 0.871712   
     axis -90 45 2.85299e-015   XYZ
    dof rx rz
    limits (-45.0 45.0)
           (-45.0 45.0)
  end
  begin
     id 24 
     name rclavicle
     direction -0.885098 0.45949 0.0739604   
     length 2.9478  
     axis 0 0 0   XYZ 
    dof ry rz
    limits (-10.0 20.0)
           (-20.0 0.0)
  end
  begin
     id 25 
     name rhumerus
     direction -1 -4.4898e-011 -2.61739e-027  
     length 4.52172   
     axis -180 30 90   XYZ
    dof rx ry rz
    limits (-90.0 60.0)
           (-90.0 90.0)
           (-90.0 90.0)
  end
  begin
     id 26 
     name rradius
     direction -1 -4.48945e-011 9.02552e-028   
     length 2.8914   
     axis -180 30 90   XYZ
    dof rx
    limits (-10.0 170.0)
  end
  begin
     id 27 
     name rwrist
     direction -1 -4.49018e-011 1.58672e-027   
     length 1.4457   
     axis -1.65735e-015 -90 -90   XYZ
    dof ry
    limits (-180.0 0.0)
  end
  begin
     id 28
     name rhand
     direction -1 -4.48825e-011 3.17344e-027   
     length 0.680541   
     axis -2.02492e-015 -90 -90   XYZ
    dof rx rz
    limits (-90.0 90.0)
           (-45.0 45.0)
  end
  begin
     id 29
     name rfingers
     direction -1 -4.49067e-011 6.34687e-027   
     length 0.54867   
     axis -4.04985e-015 -90 -90   XYZ
    dof rx
    limits (0.0 90.0)
  end
  begin
     id 30
     name rthumb
     direction -0.707107 -6.34833e-011 0.707107   
     length 0.787783   
     axis -90 -45 -2.85299e-015   XYZ
    dof rx rz
    limits (-45.0 45.0)
           (-45.0 45.0)
  end
:hierarchy
  begin
    root lhipjoint rhipjoint lowerback
    lhipjoint lfemur
    lfemur ltibia
    ltibia lfoot
    lfoot ltoes
    rhipjoint rfemur
    rfemur rtibia
    rtibia rfoot
    rfoot rtoes
    lowerback upperback
    upperback thorax
    thorax lowerneck lclavicle rclavicle
    lowerneck upperneck
    upperneck head
    lclavicle lhumerus
    lhumerus lradius
    lradius lwrist
    lwrist lhand lthumb
    lhand lfingers
    rclavicle rhumerus
    rhumerus rradius
    rradius rwrist
    rwrist rhand rthumb
    rhand rfingers
  end

#!OML:ASF E:\emotionWalksFemale\Project 1\Capture day 1\Session 1\Female1.ASF
:FULLY-SPECIFIED
:DEGREES
128
root 9.1784 15.4927 23.3153 178.906 -3.92168 -179.684
lowerback 8.73404 2.89015 2.98972
upperback -4.84386 4.18394 -0.105544
thorax -9.86005 1.78148 -2.49118
lowerneck -1.8035 16.2878 8.76519
upperneck 1.58646 21.7618 -8.0321
head 2.83744 10.7863 -3.07879
rclavicle 3.58061e-014 8.34896e-015
rhumerus -48.8558 14.1876 -99.2651
rradius 34.5605
rwrist 15.3006
rhand 0.471625 -56.7117
rfingers 7.12502
rthumb 26.042 -84.9468
lclavicle 3.58061e-014 8.34896e-015
lhumerus -43.0012 -13.1446 95.1121
lradius 35.0428
lwrist -14.3611
lhand -2.04088 -37.2572
lfingers 7.12502
lthumb 23.6342 -8.68983
rfemur 2.77093 14.2563 26.6118
rtibia 14.4941
rfoot -16.6206 -32.3262
rtoes 4.25999
lfemur -5.36348 -21.4546 -22.4851
ltibia 23.0813
lfoot -18.0181 16.1252
ltoes -41.6082
129
root 9.17676 15.4972 23.3191 179.109 -3.54355 -179.672
lowerback 8.63832 3.00966 2.98441
upperback -4.90177 4.33822 -0.0973375
thorax -9.85911 1.85444 -2.50011
lowerneck -1.84888 16.3114 8.72225
upperneck 1.59312 21.7913 -8.02773
head 2.84413 10.7992 -3.06435
rclavicle -6.18717e-014 -7.35503e-015
rhumerus -48.8325 14.1932 -99.2453
rradius 34.4985
rwrist 15.4472
rhand 0.574674 -56.6157
rfingers 7.12502
rthumb 26.1407 -84.8362
lclavicle -6.18717e-014 -7.35503e-015
lhumerus -42.911 -13.1227 95.1162
lradius 34.9541
lwrist -14.3837
lhand -2.16486 -37.3506
lfingers 7.12502
lthumb 23.5153 -8.76794
rfemur 2.47073 14.3008 26.4938
rtibia 14.4702
rfoot -16.2607 -32.0403
rtoes 3.66246
lfemur -5.57808 -21.3031 -22.4113
ltibia 23.0997
lfoot -18.237 16.2987
ltoes -41.5875
130
root 9.17736 15.4953 23.3166 179.042 -3.79328 -179.663
lowerback 8.63294 2.92331 2.99791
upperback -4.85188 4.22499 -0.0985646
thorax -9.80641 1.80197 -2.48858
lowerneck -1.80533 16.288 8.81154
upperneck 1.50678 21.7614 -8.15543
head 2.83378 10.7841 -3.12679
rclavicle -2.48357e-014 -8.15017e-015
rhumerus -48.8308 14.2136 -99.2845
rradius 34.2937
rwrist 16.004
rhand 0.532419 -56.4272
rfingers 7.12502
rthumb 26.1002 -84.6537
lclavicle -2.48357e-014 -8.15017e-015
lhumerus -42.8387 -13.1931 95.1372
lradius 34.889
lwrist -14.4162
lhand -2.19159 -37.2961
lfingers 7.12502
lthumb 23.4896 -8.71021
rfemur 2.59966 14.2696 26.5716
rtibia 14.4534
rfoot -16.3173 -32.2758
rtoes 3.84842
lfemur -5.53614 -21.3865 -22.4116
ltibia 23.1117
lfoot -18.2557 16.1447
ltoes -41.7394
131
root 9.17744 15.4956 23.3156 179.029 -3.81265 -179.657
lowerback 8.6182 2.90355 2.99178
upperback -4.74919 4.19984 -0.0970726
thorax -9.68632 1.79703 -2.47496
lowerneck -2.20764 16.3102 8.70584
upperneck 1.61191 21.7677 -8.06357
head 2.91495 10.7765 -3.04156
rclavicle -2.40032e-014 -1.0635e-014
rhumerus -48.7479 14.384 -99.372
rradius 33.8821
rwrist 17.27
rhand -0.147999 -55.6744
rfingers 7.12502
rthumb 25.4486 -83.9955
lclavicle -2.40032e-014 -1.0635e-014
lhumerus -42.5928 -13.2788 95.1041
lradius 34.805
lwrist -14.3736
lhand -2.22317 -37.2913
lfingers 7.12502
lthumb 23.4593 -8.70154
rfemur 2.63632 14.3006 26.5898
rtibia 14.4281
rfoot -16.4073 -32.2738
rtoes 4.11152
lfemur -5.53181 -21.3357 -22.4045
ltibia 23.1225
lfoot -18.2286 16.031
ltoes -41.4688
132
root 9.17663 15.4951 23.315 179.027 -3.74184 -179.657
lowerback 8.62218 2.89641 2.9705
upperback -4.66552 4.19051 -0.0882326
thorax -9.59912 1.79934 -2.44951
lowerneck -2.62933 16.3301 8.56226
upperneck 1.77787 21.7716 -7.8982
head 3.00524 10.7682 -2.92449
rclavicle 2.72459e-014 2.48481e-015
rhumerus -48.577 14.4719 -99.3634
rradius 33.871
rwrist 17.3378
rhand -0.074459 -55.8726
rfingers 7.12502
rthumb 25.5191 -84.1836
lclavicle 2.72459e-014 2.48481e-015
lhumerus -42.3898 -13.3651 95.073
lradius 34.7922
lwrist -14.2121
lhand -2.19095 -37.2346
lfingers 7.12502
lthumb 23.4902 -8.64871
rfemur 2.66303 14.3579 26.5802
rtibia 14.3602
rfoot -16.387 -32.2164
rtoes 4.36232
lfemur -5.53386 -21.2269 -22.4028
ltibia 23.1558
lfoot -18.2682 15.9913
ltoes -41.4417
133
root 9.17576 15.4945 23.3141 179.017 -3.74659 -179.594
lowerback 8.66649 2.86962 3.03995
upperback -4.73739 4.1655 -0.0634424
thorax -9.70331 1.77827 -2.46313
lowerneck -2.40723 16.2796 8.58336
upperneck 1.79932 21.7172 -7.83894
head 2.963 10.7492 -2.93348
rclavicle 5.35725e-014 4.87022e-015
rhumerus -48.7169 14.4522 -99.4003
rradius 33.7958
rwrist 17.638
rhand 0.380418 -55.9599
rfingers 7.12502
rthumb 25.9547 -84.2078
lclavicle 5.35725e-014 4.87022e-015
lhumerus -42.5872 -13.3409 95.0945
lradius 34.8914
lwrist -14.1844
lhand -1.94008 -37.0943
lfingers 7.12502
lthumb 23.7309 -8.53942
rfemur 2.69842 14.3447 26.648
rtibia 14.2941
rfoot -16.249 -32.2625
rtoes 4.46883
lfemur -5.54318 -21.1575 -22.3292
ltibia 23.188
lfoot -18.3521 16.0567
ltoes -42.3513
134
root 9.17467 15.4948 23.3139 179.013 -3.74399 -179.509
lowerback 8.71302 2.86472 3.15521
upperback -4.74287 4.17537 -0.0683588
thorax -9.72824 1.77441 -2.53726
lowerneck -2.19806 16.1726 8.65628
upperneck 1.45131 21.5744 -8.02488
head 2.82929 10.6827 -3.04847
rclavicle -2.61029e-014 -2.68359e-015
rhumerus -48.6762 14.3534 -99.378
rradius 33.7287
rwrist 17.7891
rhand 0.669465 -56.0167
rfingers 7.12502
rthumb 26.2314 -84.2238
lclavicle -2.61029e-014 -2.68359e-015
lhumerus -42.6244 -13.3835 95.0804
lradius 34.9321
lwrist -14.2342
lhand -2.02301 -37.1515
lfingers 7.12502
lthumb 23.6513 -8.58634
rfemur 2.72151 14.275 26.7323
rtibia 14.2275
rfoot -16.0518 -32.2728
rtoes 4.00273
lfemur -5.56555 -21.1391 -22.2334
ltibia 23.2222
lfoot -18.4412 16.1236
ltoes -42.9957
135
root 9.17321 15.4951 23.3123 179.048 -3.65737 -179.484
lowerback 8.67632 2.89266 3.18222
upperback -4.67726 4.21464 -0.0873332
thorax -9.6284 1.79598 -2.57407
lowerneck -2.22909 16.0811 8.63466
upperneck 1.08415 21.4344 -8.17653
head 2.71487 10.6108 -3.11841
rclavicle 4.72114e-015 -3.97569e-016
rhumerus -48.4896 14.2334 -99.274
rradius 33.7675
rwrist 17.6867
rhand 0.709148 -56.0609
rfingers 7.12502
rthumb 26.2694 -84.2623
lclavicle 4.72114e-015 -3.97569e-016
lhumerus -42.4595 -13.4588 95.0218
lradius 34.8722
lwrist -14.2699
lhand -2.3721 -37.3584
lfingers 7.12502
lthumb 23.3165 -8.75039
rfemur 2.71446 14.2927 26.7393
rtibia 14.1585
rfoot -15.9454 -32.2236
rtoes 3.5682
lfemur -5.60544 -21.0972 -22.2008
ltibia 23.2543
lfoot -18.4792 16.0808
ltoes -42.4907
136
root 9.17201 15.4968 23.3109 179.098 -3.56179 -179.509
lowerback 8.64081 2.91133 3.14964
upperback -4.76769 4.23188 -0.0829761
thorax -9.70856 1.80119 -2.55494
lowerneck -2.2216 16.0796 8.49968
upperneck 1.39719 21.4413 -7.8331
head 2.75665 10.6197 -2.97967
rclavicle 9.39382e-014 1.74931e-014
rhumerus -48.6255 14.048 -99.1575
rradius 33.9472
rwrist 17.2705
rhand 1.13006 -56.4192
rfingers 7.12502
rthumb 26.6723 -84.5599
lclavicle 9.39382e-014 1.74931e-014
lhumerus -42.6177 -13.3585 95.0226
lradius 34.8314
lwrist -14.3501
lhand -2.3479 -37.45
lfingers 7.12502
lthumb 23.3397 -8.84493
rfemur 2.68194 14.3661 26.6889
rtibia 14.1192
rfoot -15.9691 -32.1731
rtoes 3.76752
lfemur -5.65743 -20.9689 -22.2122
ltibia 23.2731
lfoot -18.4715 15.9729
ltoes -41.5683
137
root 9.17083 15.4976 23.3125 179.102 -3.53448 -179.588
lowerback 8.70161 2.90061 3.06753
upperback -4.86275 4.20721 -0.0852952
thorax -9.85657 1.78735 -2.51513
lowerneck -2.21945 16.0591 8.52667
upperneck 1.79884 21.4275 -7.64739
head 2.87108 10.6155 -2.90998
rclavicle -1.97915e-014 -1.2921e-014
rhumerus -48.8894 14.1061 -99.2356
rradius 33.9695
rwrist 17.5111
rhand 0.862762 -56.1093
rfingers 7.12502
rthumb 26.4165 -84.2887
lclavicle -1.97915e-014 -1.2921e-014
lhumerus -42.7896 -13.2967 95.0732
lradius 34.79
lwrist -14.3815
lhand -2.38313 -37.6044
lfingers 7.12502
lthumb 23.3059 -8.99511
rfemur 2.68393 14.41 26.5972
rtibia 14.1015
rfoot -15.9868 -32.1453
rtoes 3.81759
lfemur -5.66775 -20.8867 -22.2966
ltibia 23.2753
lfoot -18.4889 15.9092
ltoes -41.0427
138
root 9.16948 15.4953 23.3137 179.098 -3.49289 -179.589
lowerback 8.74791 2.89168 3.05015
upperback -4.87721 4.19577 -0.0727895
thorax -9.90292 1.78169 -2.49379
lowerneck -2.28483 16.0087 8.52546
upperneck 1.89808 21.3589 -7.60859
head 2.90571 10.5802 -2.8938
rclavicle 1.15295e-014 2.5842e-015
rhumerus -48.9083 14.1934 -99.2446
rradius 33.9703
rwrist 17.3554
rhand 0.852005 -56.0732
rfingers 7.12502
rthumb 26.4062 -84.2541
lclavicle 1.15295e-014 2.5842e-015
lhumerus -42.7706 -13.254 95.0935
lradius 34.6954
lwrist -14.4383
lhand -2.66852 -37.8462
lfingers 7.12502
lthumb 23.0321 -9.20243
rfemur 2.69106 14.4696 26.6012
rtibia 14.1054
rfoot -16.0658 -32.1036
rtoes 3.91853
lfemur -5.65382 -20.8631 -22.2972
ltibia 23.2597
lfoot -18.5108 15.9321
ltoes -41.2139
139
root 9.16792 15.4942 23.3115 179.127 -3.40277 -179.492
lowerback 8.70131 2.89378 3.11534
upperback -4.8853 4.20704 -0.0394997
thorax -9.88167 1.78398 -2.49357
lowerneck -2.46516 15.9747 8.29348
upperneck 2.01402 21.2994 -7.27693
head 2.89718 10.5514 -2.74355
rclavicle 1.12935e-014 3.8763e-015
rhumerus -48.9038 14.214 -99.234
rradius 33.9282
rwrist 17.475
rhand 0.723178 -55.906
rfingers 7.12502
rthumb 26.2829 -84.1054
lclavicle 1.12935e-014 3.8763e-015
lhumerus -42.7308 -13.1704 95.07
lradius 34.5888
lwrist -14.5321
lhand -2.78512 -37.8537
lfingers 7.12502
lthumb 22.9202 -9.19602
rfemur 2.65573 14.5133 26.6962
rtibia 14.1358
rfoot -16.1753 -32.0244
rtoes 3.96443
lfemur -5.64833 -20.82 -22.1852
ltibia 23.2323
lfoot -18.4795 16.0007
ltoes -41.7054
140
root 9.16573 15.4941 23.3088 179.136 -3.3195 -179.495
lowerback 8.62513 2.87645 3.03893
upperback -4.84456 4.17472 0.00540193
thorax -9.80192 1.77842 -2.39163
lowerneck -2.75091 15.92 8.05501
upperneck 2.17639 21.2092 -6.97551
head 2.925 10.5037 -2.59365
rclavicle 4.94725e-014 1.12313e-014
rhumerus -48.8435 14.314 -99.1903
rradius 33.95
rwrist 17.4988
rhand 0.716454 -55.8386
rfingers 7.12502
rthumb 26.2764 -84.039
lclavicle 4.94725e-014 1.12313e-014
lhumerus -42.6292 -13.0543 95.0493
lradius 34.5562
lwrist -14.5356
lhand -2.57996 -37.5892
lfingers 7.12502
lthumb 23.117 -8.95608
rfemur 2.65385 14.5436 26.6851
rtibia 14.1472
rfoot -16.1136 -32.0142
rtoes 3.88144
lfemur -5.61234 -20.8088 -22.2048
ltibia 23.2069
lfoot -18.4878 16.0569
ltoes -41.7026
